#Comment line ignore any data following # character 
#Hierarchical Translation and Rotation (.htr) file 
[Header]	
#Header keywords are followed by a single value 
FileType HTR		#Single word string
DataType HTRS		#Translation followed by rotation and scale data
FileVersion 1		#integer
NumSegments 84		#integer
NumFrames 2		#integer
DataFrameRate 30		#integer, data frame rate in this file
EulerRotationOrder ZYX
CalibrationUnits mm
RotationUnits Degrees
GlobalAxisofGravity Y
BoneLengthAxis Y
ScaleFactor 1.00
[SegmentNames&Hierarchy]
#CHILD	PARENT
MASTER GLOBAL
root MASTER
chest root
L_mid_tent01 root
R_mid_tent01 root
spine01 root
Bip01_Neck chest
L_humerus chest
R_humerus chest
weapon_bone chest
Bip01_Head Bip01_Neck
eye_left_bone Bip01_Head
eye_right_bone Bip01_Head
L_forearm L_humerus
L_front_hand L_forearm
L_weapon_bone L_forearm
L_front_hand01_01 L_front_hand
L_front_hand02_01 L_front_hand
L_front_hand03_01 L_front_hand
L_front_hand01_02 L_front_hand01_01
L_front_hand02_02 L_front_hand02_01
L_front_hand03_02 L_front_hand03_01
R_forearm R_humerus
R_front_hand R_forearm
R_weapon_bone R_forearm
R_front_hand01_01 R_front_hand
R_front_hand02_01 R_front_hand
R_front_hand03_01 R_front_hand
R_front_hand01_02 R_front_hand01_01
R_front_hand02_02 R_front_hand02_01
R_front_hand03_02 R_front_hand03_01
null_rope01_connect L_mid_tent01
Rope1_Seg01 null_rope01_connect
Rope1_Seg02 Rope1_Seg01
Rope1_Seg03 Rope1_Seg02
Rope1_Seg04 Rope1_Seg03
Rope1_Seg05 Rope1_Seg04
Rope1_Seg06 Rope1_Seg05
Rope1_Seg07 Rope1_Seg06
Rope1_Seg09 Rope1_Seg07
L_mid_hand01 Rope1_Seg09
L_mid_hand02 Rope1_Seg09
L_mid_hand03 Rope1_Seg09
null_rope02_connect R_mid_tent01
Rope2_Seg01 null_rope02_connect
Rope2_Seg02 Rope2_Seg01
Rope2_Seg03 Rope2_Seg02
Rope2_Seg04 Rope2_Seg03
Rope2_Seg05 Rope2_Seg04
Rope2_Seg06 Rope2_Seg05
Rope2_Seg07 Rope2_Seg06
Rope2_Seg09 Rope2_Seg07
R_mid_hand01 Rope2_Seg09
R_mid_hand02 Rope2_Seg09
R_mid_hand03 Rope2_Seg09
spine02 spine01
spine03 spine02
pelvis spine03
null_rope03_connect pelvis
null_rope04_connect pelvis
Rope3_Seg01 null_rope03_connect
Rope3_Seg02 Rope3_Seg01
Rope3_Seg03 Rope3_Seg02
Rope3_Seg04 Rope3_Seg03
Rope3_Seg05 Rope3_Seg04
Rope3_Seg06 Rope3_Seg05
Rope3_Seg07 Rope3_Seg06
Rope3_Seg08 Rope3_Seg07
Rope3_Seg09 Rope3_Seg08
R_rear_hand01 Rope3_Seg09
R_rear_hand02 Rope3_Seg09
R_rear_hand03 Rope3_Seg09
Rope4_Seg01 null_rope04_connect
Rope4_Seg02 Rope4_Seg01
Rope4_Seg03 Rope4_Seg02
Rope4_Seg04 Rope4_Seg03
Rope4_Seg05 Rope4_Seg04
Rope4_Seg06 Rope4_Seg05
Rope4_Seg07 Rope4_Seg06
Rope4_Seg08 Rope4_Seg07
Rope4_Seg09 Rope4_Seg08
L_rear_hand01 Rope4_Seg09
L_rear_hand02 Rope4_Seg09
L_rear_hand03 Rope4_Seg09
[BasePosition]
#SegmentName Tx, Ty, Tz, Rx, Ry, Rz, BoneLength
MASTER 0.000000 0.000000 0.000000 -90.000000 0.000000 0.000000 10.000000 
root 0.000000 0.000000 0.000000 0.000000 0.000000 0.000000 10.000000 
chest 0.000000 0.000000 0.000000 0.000000 0.000000 0.000000 10.000000 
L_mid_tent01 0.000000 0.000000 0.000000 0.000000 0.000000 0.000000 10.000000 
R_mid_tent01 0.000000 0.000000 0.000000 0.000000 0.000000 0.000000 10.000000 
spine01 0.000000 0.000000 0.000000 0.000000 0.000000 0.000000 10.000000 
Bip01_Neck 0.000000 0.000000 0.000000 0.000000 0.000000 0.000000 10.000000 
L_humerus 0.000000 0.000000 0.000000 0.000000 0.000000 0.000000 10.000000 
R_humerus 0.000000 0.000000 0.000000 0.000000 0.000000 0.000000 10.000000 
weapon_bone 0.000000 0.000000 0.000000 0.000000 0.000000 0.000000 10.000000 
Bip01_Head 0.000000 0.000000 0.000000 0.000000 0.000000 0.000000 10.000000 
eye_left_bone 0.000000 0.000000 0.000000 0.000000 0.000000 0.000000 10.000000 
eye_right_bone 0.000000 0.000000 0.000000 0.000000 0.000000 0.000000 10.000000 
L_forearm 0.000000 0.000000 0.000000 0.000000 0.000000 0.000000 10.000000 
L_front_hand 0.000000 0.000000 0.000000 0.000000 0.000000 0.000000 10.000000 
L_weapon_bone 0.000000 0.000000 0.000000 0.000000 0.000000 0.000000 10.000000 
L_front_hand01_01 0.000000 0.000000 0.000000 0.000000 0.000000 0.000000 10.000000 
L_front_hand02_01 0.000000 0.000000 0.000000 0.000000 0.000000 0.000000 10.000000 
L_front_hand03_01 0.000000 0.000000 0.000000 0.000000 0.000000 0.000000 10.000000 
L_front_hand01_02 0.000000 0.000000 0.000000 0.000000 0.000000 0.000000 10.000000 
L_front_hand02_02 0.000000 0.000000 0.000000 0.000000 0.000000 0.000000 10.000000 
L_front_hand03_02 0.000000 0.000000 0.000000 0.000000 0.000000 0.000000 10.000000 
R_forearm 0.000000 0.000000 0.000000 0.000000 0.000000 0.000000 10.000000 
R_front_hand 0.000000 0.000000 0.000000 0.000000 0.000000 0.000000 10.000000 
R_weapon_bone 0.000000 0.000000 0.000000 0.000000 0.000000 0.000000 10.000000 
R_front_hand01_01 0.000000 0.000000 0.000000 0.000000 0.000000 0.000000 10.000000 
R_front_hand02_01 0.000000 0.000000 0.000000 0.000000 0.000000 0.000000 10.000000 
R_front_hand03_01 0.000000 0.000000 0.000000 0.000000 0.000000 0.000000 10.000000 
R_front_hand01_02 0.000000 0.000000 0.000000 0.000000 0.000000 0.000000 10.000000 
R_front_hand02_02 0.000000 0.000000 0.000000 0.000000 0.000000 0.000000 10.000000 
R_front_hand03_02 0.000000 0.000000 0.000000 0.000000 0.000000 0.000000 10.000000 
null_rope01_connect 0.000000 0.000000 0.000000 0.000000 0.000000 0.000000 10.000000 
Rope1_Seg01 0.000000 0.000000 0.000000 0.000000 0.000000 0.000000 10.000000 
Rope1_Seg02 0.000000 0.000000 0.000000 0.000000 0.000000 0.000000 10.000000 
Rope1_Seg03 0.000000 0.000000 0.000000 0.000000 0.000000 0.000000 10.000000 
Rope1_Seg04 0.000000 0.000000 0.000000 0.000000 0.000000 0.000000 10.000000 
Rope1_Seg05 0.000000 0.000000 0.000000 0.000000 0.000000 0.000000 10.000000 
Rope1_Seg06 0.000000 0.000000 0.000000 0.000000 0.000000 0.000000 10.000000 
Rope1_Seg07 0.000000 0.000000 0.000000 0.000000 0.000000 0.000000 10.000000 
Rope1_Seg09 0.000000 0.000000 0.000000 0.000000 0.000000 0.000000 10.000000 
L_mid_hand01 0.000000 0.000000 0.000000 0.000000 0.000000 0.000000 10.000000 
L_mid_hand02 0.000000 0.000000 0.000000 0.000000 0.000000 0.000000 10.000000 
L_mid_hand03 0.000000 0.000000 0.000000 0.000000 0.000000 0.000000 10.000000 
null_rope02_connect 0.000000 0.000000 0.000000 0.000000 0.000000 0.000000 10.000000 
Rope2_Seg01 0.000000 0.000000 0.000000 0.000000 0.000000 0.000000 10.000000 
Rope2_Seg02 0.000000 0.000000 0.000000 0.000000 0.000000 0.000000 10.000000 
Rope2_Seg03 0.000000 0.000000 0.000000 0.000000 0.000000 0.000000 10.000000 
Rope2_Seg04 0.000000 0.000000 0.000000 0.000000 0.000000 0.000000 10.000000 
Rope2_Seg05 0.000000 0.000000 0.000000 0.000000 0.000000 0.000000 10.000000 
Rope2_Seg06 0.000000 0.000000 0.000000 0.000000 0.000000 0.000000 10.000000 
Rope2_Seg07 0.000000 0.000000 0.000000 0.000000 0.000000 0.000000 10.000000 
Rope2_Seg09 0.000000 0.000000 0.000000 0.000000 0.000000 0.000000 10.000000 
R_mid_hand01 0.000000 0.000000 0.000000 0.000000 0.000000 0.000000 10.000000 
R_mid_hand02 0.000000 0.000000 0.000000 0.000000 0.000000 0.000000 10.000000 
R_mid_hand03 0.000000 0.000000 0.000000 0.000000 0.000000 0.000000 10.000000 
spine02 0.000000 0.000000 0.000000 0.000000 0.000000 0.000000 10.000000 
spine03 0.000000 0.000000 0.000000 0.000000 0.000000 0.000000 10.000000 
pelvis 0.000000 0.000000 0.000000 0.000000 0.000000 0.000000 10.000000 
null_rope03_connect 0.000000 0.000000 0.000000 0.000000 0.000000 0.000000 10.000000 
null_rope04_connect 0.000000 0.000000 0.000000 0.000000 0.000000 0.000000 10.000000 
Rope3_Seg01 0.000000 0.000000 0.000000 0.000000 0.000000 0.000000 10.000000 
Rope3_Seg02 0.000000 0.000000 0.000000 0.000000 0.000000 0.000000 10.000000 
Rope3_Seg03 0.000000 0.000000 0.000000 0.000000 0.000000 0.000000 10.000000 
Rope3_Seg04 0.000000 0.000000 0.000000 0.000000 0.000000 0.000000 10.000000 
Rope3_Seg05 0.000000 0.000000 0.000000 0.000000 0.000000 0.000000 10.000000 
Rope3_Seg06 0.000000 0.000000 0.000000 0.000000 0.000000 0.000000 10.000000 
Rope3_Seg07 0.000000 0.000000 0.000000 0.000000 0.000000 0.000000 10.000000 
Rope3_Seg08 0.000000 0.000000 0.000000 0.000000 0.000000 0.000000 10.000000 
Rope3_Seg09 0.000000 0.000000 0.000000 0.000000 0.000000 0.000000 10.000000 
R_rear_hand01 0.000000 0.000000 0.000000 0.000000 0.000000 0.000000 10.000000 
R_rear_hand02 0.000000 0.000000 0.000000 0.000000 0.000000 0.000000 10.000000 
R_rear_hand03 0.000000 0.000000 0.000000 0.000000 0.000000 0.000000 10.000000 
Rope4_Seg01 0.000000 0.000000 0.000000 0.000000 0.000000 0.000000 10.000000 
Rope4_Seg02 0.000000 0.000000 0.000000 0.000000 0.000000 0.000000 10.000000 
Rope4_Seg03 0.000000 0.000000 0.000000 0.000000 0.000000 0.000000 10.000000 
Rope4_Seg04 0.000000 0.000000 0.000000 0.000000 0.000000 0.000000 10.000000 
Rope4_Seg05 0.000000 0.000000 0.000000 0.000000 0.000000 0.000000 10.000000 
Rope4_Seg06 0.000000 0.000000 0.000000 0.000000 0.000000 0.000000 10.000000 
Rope4_Seg07 0.000000 0.000000 0.000000 0.000000 0.000000 0.000000 10.000000 
Rope4_Seg08 0.000000 0.000000 0.000000 0.000000 0.000000 0.000000 10.000000 
Rope4_Seg09 0.000000 0.000000 0.000000 0.000000 0.000000 0.000000 10.000000 
L_rear_hand01 0.000000 0.000000 0.000000 0.000000 0.000000 0.000000 10.000000 
L_rear_hand02 0.000000 0.000000 0.000000 0.000000 0.000000 0.000000 10.000000 
L_rear_hand03 0.000000 0.000000 0.000000 0.000000 0.000000 0.000000 10.000000 
#Beginning of Data. Separated by tabs
#Fr	Tx	Ty	Tz	Rx	Ry	Rz	SF
[MASTER]
11 -1305.294678 0.000197 0.000000 0.002347 0.000000 89.997688 1305.294678
12 -1451.776245 0.000219 0.000000 0.002347 0.000000 89.997704 1451.776245
[root]
11 -62.822117 16.502380 1172.345215 54.550182 -26.765730 179.514328 1174.143188
12 -62.822117 16.502380 1182.316650 69.089241 -26.443136 179.584793 1184.099487
[chest]
11 -84.512650 -34.090519 0.000000 152.400177 10.921064 174.295395 91.129311
12 -84.512650 -34.090519 0.000000 165.866821 13.057075 175.508591 91.129311
[L_mid_tent01]
11 27.521736 22.050165 -251.345810 -30.674150 0.036816 15.035162 253.807755
12 27.513987 22.054621 -251.296066 -30.663670 0.093706 15.096786 253.758041
[R_mid_tent01]
11 23.228794 24.509907 226.238495 -157.402023 -47.131454 31.215775 228.744751
12 23.228794 24.509907 226.238495 -155.772797 -45.259197 29.647505 228.744751
[spine01]
11 -0.361383 -0.195265 0.000000 21.823242 1.707903 -4.455853 0.410763
12 -0.361383 -0.195265 0.000000 25.075401 1.843322 -4.357883 0.410763
[Bip01_Neck]
11 165.484543 71.581718 0.000119 175.896118 1.177290 24.871180 180.302734
12 165.484543 71.581718 0.000119 175.896118 1.177290 24.871183 180.302734
[L_humerus]
11 -13.983130 -135.272980 -120.471481 170.940796 81.564224 -99.189163 181.680161
12 -13.983130 -135.272980 -120.471481 170.940796 81.564224 -99.189163 181.680161
[R_humerus]
11 -13.983309 -135.273102 125.287651 -159.666046 -68.957870 -101.166077 184.909012
12 -13.983309 -135.273102 125.287651 -159.666046 -68.957870 -101.166077 184.909012
[weapon_bone]
11 235.964890 -300.705902 0.000000 0.000000 -89.951546 -128.212341 382.234833
12 235.964890 -300.705902 0.000000 0.000000 -89.951546 -128.212341 382.234833
[Bip01_Head]
11 261.355865 108.959404 -2.864143 2.248029 5.843375 -62.458332 283.173523
12 261.355865 108.959412 -2.864139 2.248029 5.843377 -62.458344 283.173523
[eye_left_bone]
11 -24.626970 125.451866 -64.772606 0.000000 -90.000000 -99.840431 143.318359
12 -24.626970 125.451866 -64.772606 0.000000 -90.000000 -99.840431 143.318359
[eye_right_bone]
11 -24.626970 125.451866 64.327362 0.000000 -89.960434 80.159386 143.117676
12 -24.626970 125.451866 64.327362 0.000000 -89.960434 80.159386 143.117676
[L_forearm]
11 322.776093 0.000000 -0.000119 0.000471 0.002300 -66.859383 322.776093
12 322.776093 0.000000 -0.000119 0.000471 0.002300 -66.859398 322.776093
[L_front_hand]
11 241.149185 -0.042021 -3.300071 -178.667953 -1.835447 -27.422344 241.171753
12 241.149185 -0.042021 -3.300071 -178.667953 -1.835447 -27.422350 241.171753
[L_weapon_bone]
11 156.183838 0.000000 0.000000 0.001684 0.001635 1.712932 156.183838
12 156.183838 0.000000 0.000000 0.001660 0.001660 0.001660 156.183838
[L_front_hand01_01]
11 86.095154 20.947098 -0.655860 0.369602 -0.471604 -0.474656 88.609184
12 86.095154 20.947098 -0.655860 0.355583 -0.483393 1.696618 88.609184
[L_front_hand02_01]
11 86.935165 -11.437475 24.513514 116.900932 -0.067227 -0.380435 91.046425
12 86.935165 -11.437475 24.513514 116.920830 -2.000208 -1.364704 91.046425
[L_front_hand03_01]
11 86.637497 -14.123976 -20.424902 -118.322960 -1.010497 -2.122114 90.126129
12 86.637497 -14.123976 -20.424902 -118.323914 0.897004 -3.155428 90.126129
[L_front_hand01_02]
11 71.020905 -0.000179 0.000030 0.001340 0.001927 -20.398041 71.020905
12 71.020905 -0.000179 0.000030 0.001284 0.001965 -23.693426 71.020905
[L_front_hand02_02]
11 71.020927 -0.000119 0.000060 0.001340 0.001927 -20.398041 71.020927
12 71.020927 -0.000119 0.000060 0.001284 0.001965 -23.693426 71.020927
[L_front_hand03_02]
11 71.020905 -0.000060 0.000060 0.001340 0.001927 -20.398041 71.020905
12 71.020905 -0.000060 0.000060 0.001284 0.001965 -23.693426 71.020905
[R_forearm]
11 322.776428 -0.000060 0.000030 0.199694 -0.075621 -69.903069 322.776428
12 322.776428 -0.000060 0.000030 0.199694 -0.075621 -69.903069 322.776428
[R_front_hand]
11 238.847015 -0.006795 2.210259 -1.531694 0.790216 -51.443062 238.857239
12 238.847015 -0.006795 2.210259 -1.531694 0.790216 -51.443054 238.857239
[R_weapon_bone]
11 155.664093 0.002503 -0.000030 0.003460 0.001257 -93.540901 155.664078
12 155.664093 0.002503 -0.000030 0.003487 0.001180 -90.988930 155.664078
[R_front_hand01_01]
11 87.624611 14.231146 22.918642 -116.905045 -0.199669 0.558365 91.683487
12 87.624611 14.231146 22.918642 -116.926704 -2.134259 1.536028 91.683487
[R_front_hand02_01]
11 89.356956 14.367283 -19.491137 118.337402 -0.608905 2.582982 92.579636
12 89.356956 14.367283 -19.491137 118.343285 1.300314 3.610098 92.579636
[R_front_hand03_01]
11 87.286232 -22.307278 -0.143439 -0.369466 -0.260185 0.086579 90.091743
12 87.286232 -22.307278 -0.143439 -0.359435 -0.271993 -2.084699 90.091743
[R_front_hand01_02]
11 71.020905 0.000060 0.000119 0.001927 0.001340 20.396389 71.020905
12 71.020905 0.000060 0.000119 0.001965 0.001284 23.691765 71.020905
[R_front_hand02_02]
11 71.020844 -0.000030 -0.000119 0.001927 0.001340 20.396389 71.020836
12 71.020844 -0.000030 -0.000119 0.001965 0.001284 23.691765 71.020836
[R_front_hand03_02]
11 71.020905 0.000000 0.000030 0.001927 0.001340 20.396389 71.020905
12 71.020905 0.000000 0.000030 0.001965 0.001284 23.691765 71.020905
[null_rope01_connect]
11 328.732483 0.000000 -0.000238 35.272942 24.230610 80.885544 328.732483
12 328.732483 0.000000 -0.000238 36.432537 38.628700 83.454376 328.732483
[Rope1_Seg01]
11 0.000000 0.000000 0.000000 110.956383 -11.666682 -14.967302 0.000000
12 0.000000 0.000000 0.000000 100.358017 -18.586388 6.817429 0.000000
[Rope1_Seg02]
11 139.999863 -0.000179 0.000000 -0.020594 11.214495 -20.837635 139.999863
12 139.999863 -0.000179 0.000000 -1.507082 10.373102 -10.494342 139.999863
[Rope1_Seg03]
11 139.999924 0.000060 -0.000060 15.200003 16.309851 -35.930630 139.999924
12 139.999924 0.000060 -0.000060 -6.410104 18.728539 -19.341928 139.999924
[Rope1_Seg04]
11 139.999924 -0.000060 -0.000119 81.663269 2.964302 -25.289005 139.999924
12 139.999924 -0.000060 -0.000119 -147.623016 22.888170 -21.789873 139.999924
[Rope1_Seg05]
11 139.999832 0.000119 -0.000060 32.505909 -12.881506 -4.524635 139.999832
12 139.999832 0.000119 -0.000060 -21.331110 -3.293943 15.064508 139.999832
[Rope1_Seg06]
11 139.999954 0.000119 -0.000060 8.254177 -8.033390 1.921516 139.999954
12 139.999954 0.000119 -0.000060 -2.379226 -5.304286 7.679178 139.999954
[Rope1_Seg07]
11 139.999985 0.000060 0.000000 3.070430 -4.533296 1.895402 139.999985
12 139.999985 0.000060 0.000000 -1.254169 -4.660632 6.367248 139.999985
[Rope1_Seg09]
11 121.602913 0.000119 -0.000089 -89.793175 -1.359789 0.847147 121.602913
12 121.602913 0.000119 -0.000089 -89.793175 -1.359789 0.847147 121.602913
[L_mid_hand01]
11 103.859421 1.038730 8.195221 104.353477 -0.000248 -0.529904 104.187431
12 103.859421 1.038730 8.195221 104.355774 -0.956058 -0.777194 104.187431
[L_mid_hand02]
11 105.572853 -4.139662 -10.864139 -135.628891 4.147943 -3.635983 106.211075
12 105.572853 -4.139662 -10.864139 -135.680969 4.839560 -4.340801 106.211075
[L_mid_hand03]
11 104.641464 17.579376 -3.913581 -18.765770 -0.214116 3.275741 106.179977
12 104.641464 17.579376 -3.913581 -18.765802 0.105102 4.206013 106.179977
[null_rope02_connect]
11 328.732849 0.000179 -0.000119 -37.582935 -64.616516 -156.869476 328.732849
12 328.732849 0.000179 -0.000119 -15.923988 -57.163891 176.663895 328.732849
[Rope2_Seg01]
11 0.000015 0.000092 0.000069 -29.014791 -74.129829 -166.002838 0.000115
12 0.000021 0.000093 0.000064 -35.518696 -65.785118 -157.741013 0.000115
[Rope2_Seg02]
11 139.999741 -0.000060 -0.000119 -1.912868 -8.907444 -25.331926 139.999756
12 139.999741 -0.000060 -0.000119 -0.388658 -7.195855 -30.379408 139.999756
[Rope2_Seg03]
11 140.000107 0.000030 0.000000 3.825693 -10.295069 -51.127106 140.000107
12 140.000107 0.000030 0.000000 7.526636 -6.237864 -49.438423 140.000107
[Rope2_Seg04]
11 139.999802 0.000000 -0.000060 3.906846 -5.929845 -23.582651 139.999802
12 139.999802 0.000000 -0.000060 5.626796 -6.423469 -19.824579 139.999802
[Rope2_Seg05]
11 139.999985 -0.000060 0.000119 2.504936 -10.056570 -11.899070 139.999985
12 139.999985 -0.000060 0.000119 3.519772 -11.180953 -11.017598 139.999985
[Rope2_Seg06]
11 139.999893 -0.000030 -0.000119 0.947707 -9.907631 -9.513551 139.999893
12 139.999893 -0.000030 -0.000119 1.442410 -9.763855 -8.403874 139.999893
[Rope2_Seg07]
11 139.999893 0.000060 -0.000060 -0.173402 -4.717162 -5.611570 139.999893
12 139.999893 0.000060 -0.000060 0.137236 -5.078128 -5.065528 139.999893
[Rope2_Seg09]
11 121.338966 0.000089 -0.000060 33.793236 -1.359788 -0.847141 121.338966
12 121.338966 0.000089 -0.000060 33.793236 -1.359788 -0.847141 121.338966
[R_mid_hand01]
11 104.680779 11.144459 -10.335981 -47.336269 3.795512 6.220475 105.778534
12 104.680779 11.144459 -10.335981 -47.275349 4.744051 7.096739 105.778534
[R_mid_hand02]
11 104.070427 2.443552 8.231699 75.611839 -3.350028 1.391578 104.424065
12 104.070427 2.443552 8.231699 75.589462 -4.600448 1.713181 104.424065
[R_mid_hand03]
11 106.028137 -11.221827 -5.996406 -164.430145 2.798768 -7.230777 106.788818
12 106.028137 -11.221827 -5.996406 -164.493469 3.146489 -8.476594 106.788818
[spine02]
11 129.756927 0.001550 0.000119 -0.245322 -4.052059 -4.355546 129.756927
12 129.756927 0.001550 0.000119 -0.245322 -4.052060 -4.355547 129.756927
[spine03]
11 78.613792 0.087128 -4.898752 0.369658 4.260732 -4.885719 78.766327
12 78.613800 0.087128 -4.898747 0.369659 4.260734 -4.885720 78.766335
[pelvis]
11 169.435242 0.051022 0.000000 -0.010074 -0.195214 -1.821460 169.435257
12 169.435242 0.051022 0.000000 -0.010067 -0.194834 -1.829070 169.435257
[null_rope03_connect]
11 -1.257226 -2.466202 137.391083 29.364479 76.646332 108.459290 137.418976
12 -1.257226 -2.466202 137.391083 -161.937027 85.468925 -82.584045 137.418976
[null_rope04_connect]
11 -1.259640 -2.480268 -137.844437 29.364479 76.646332 108.459290 137.872513
12 -1.259640 -2.480268 -137.844437 -161.937027 85.468925 -82.584045 137.872513
[Rope3_Seg01]
11 0.000000 0.000000 0.000000 -19.775412 20.071096 -141.708572 0.000000
12 0.000000 0.000000 0.000000 -12.519245 31.501024 -128.286575 0.000000
[Rope3_Seg02]
11 139.999924 -0.000119 0.000060 -13.156750 4.687517 -11.772951 139.999924
12 139.999924 -0.000119 0.000060 -7.615586 5.714408 -11.318641 139.999924
[Rope3_Seg03]
11 139.999924 -0.000119 0.000119 -40.011482 14.963271 -22.991499 139.999924
12 139.999924 -0.000119 0.000119 -24.058502 14.789007 -23.074102 139.999924
[Rope3_Seg04]
11 139.999924 0.000119 0.000000 -33.890640 30.944469 -12.366358 139.999924
12 139.999924 0.000119 0.000000 -30.739775 26.314413 -20.706930 139.999924
[Rope3_Seg05]
11 139.999924 -0.000238 0.000060 -6.750724 27.077097 7.157253 139.999924
12 139.999924 -0.000238 0.000060 -13.322705 27.782999 -4.307039 139.999924
[Rope3_Seg06]
11 139.999893 -0.000119 -0.000060 0.643779 18.483866 8.562331 139.999893
12 139.999893 -0.000119 -0.000060 -2.774028 20.073986 1.887126 139.999893
[Rope3_Seg07]
11 139.999771 0.000060 -0.000119 1.277383 8.058926 3.602639 139.999771
12 139.999771 0.000060 -0.000119 0.220147 8.613462 1.188755 139.999771
[Rope3_Seg08]
11 139.999985 -0.000060 0.000000 1.083757 3.968611 1.662494 139.999985
12 139.999985 -0.000060 0.000000 0.611104 4.203567 0.558592 139.999985
[Rope3_Seg09]
11 90.185997 -0.000179 -0.000060 89.793228 -1.359877 -0.847183 90.185997
12 90.185997 -0.000179 -0.000060 89.793228 -1.359877 -0.847183 90.185997
[R_rear_hand01]
11 103.366196 -6.073594 -10.757982 -159.911102 14.619091 -24.012125 104.101845
12 103.366196 -6.073594 -10.757982 -156.894989 8.887354 -9.307902 104.101845
[R_rear_hand02]
11 100.509819 12.039542 -7.992327 -35.882572 15.724491 23.557304 101.543350
12 100.509819 12.039542 -7.992327 -38.307755 6.345307 10.983821 101.543350
[R_rear_hand03]
11 101.539970 5.215704 5.435467 83.734200 -24.775511 6.498349 101.819031
12 101.539970 5.215704 5.435467 84.234985 -9.371894 4.804685 101.819031
[Rope4_Seg01]
11 -0.000034 0.000000 -0.000061 -97.339340 7.223308 -80.396637 0.000070
12 -0.000034 0.000000 -0.000067 -96.303940 3.762094 -70.502457 0.000075
[Rope4_Seg02]
11 139.999985 0.000060 0.000119 5.366390 -4.450713 40.357979 139.999985
12 139.999985 0.000060 0.000119 12.938319 -12.598756 36.140339 139.999985
[Rope4_Seg03]
11 139.999924 0.000000 -0.000238 -8.970445 -4.715082 52.762039 139.999924
12 139.999924 0.000000 -0.000238 3.883060 -7.810862 54.492043 139.999924
[Rope4_Seg04]
11 139.999985 0.000000 0.000119 -5.217695 1.226317 17.080984 139.999985
12 139.999985 0.000000 0.000119 -1.390186 3.974059 17.471870 139.999985
[Rope4_Seg05]
11 139.999802 -0.000060 -0.000119 -4.982138 6.887318 14.316662 139.999802
12 139.999802 -0.000060 -0.000119 -1.224148 10.043065 11.681989 139.999802
[Rope4_Seg06]
11 139.999924 0.000000 0.000060 -6.402306 3.624567 10.489367 139.999924
12 139.999924 0.000000 0.000060 -2.523078 6.797741 8.592029 139.999924
[Rope4_Seg07]
11 139.999802 0.000000 0.000000 -5.158419 0.697988 6.097272 139.999802
12 139.999802 0.000000 0.000000 -2.742489 2.896751 5.278828 139.999802
[Rope4_Seg08]
11 139.999924 0.000000 0.000119 -5.034433 0.087533 3.641971 139.999924
12 139.999924 0.000000 0.000119 -3.581989 1.562656 3.219291 139.999924
[Rope4_Seg09]
11 90.185791 0.000060 0.000060 -135.617828 2.228885 0.850567 90.185791
12 90.185791 0.000060 0.000060 -135.617828 2.228885 0.850567 90.185791
[L_rear_hand01]
11 101.696655 -8.392275 -7.654577 -36.168262 -14.968047 157.523178 102.329041
12 101.696655 -8.392275 -7.654577 -38.517063 -4.590807 171.240036 102.329041
[L_rear_hand02]
11 102.726799 -1.568258 5.773216 83.796188 23.492737 173.657516 102.900848
12 102.726799 -1.568258 5.773216 84.275558 6.558722 175.484329 102.900848
[L_rear_hand03]
11 104.552910 9.721220 -10.420293 -159.600342 -14.172174 -157.235031 105.519653
12 104.552910 9.721220 -10.420293 -156.517609 -7.767868 -173.313843 105.519653
